<svg xmlns="http://www.w3.org/2000/svg" xmlns:xlink="http://www.w3.org/1999/xlink" width="37.486" height="33.522" viewBox="0 0 37.486 33.522"><defs><style>.a{fill:#707070;stroke-linejoin:round;}.a,.b{stroke:#707070;stroke-width:2px;}.b{fill:none;stroke-linecap:round;}.c{filter:url(#e);}.d{filter:url(#c);}.e{filter:url(#a);}</style><filter id="a" x="0" y="0" width="29.518" height="33.427" filterUnits="userSpaceOnUse"><feOffset dy="3" input="SourceAlpha"/><feGaussianBlur stdDeviation="3" result="b"/><feFlood flood-opacity="0.161"/><feComposite operator="in" in2="b"/><feComposite in="SourceGraphic"/></filter><filter id="c" x="12.097" y="5" width="21.271" height="24.668" filterUnits="userSpaceOnUse"><feOffset dy="3" input="SourceAlpha"/><feGaussianBlur stdDeviation="3" result="d"/><feFlood flood-opacity="0.161"/><feComposite operator="in" in2="d"/><feComposite in="SourceGraphic"/></filter><filter id="e" x="13.991" y="1" width="23.495" height="32.522" filterUnits="userSpaceOnUse"><feOffset dy="3" input="SourceAlpha"/><feGaussianBlur stdDeviation="3" result="f"/><feFlood flood-opacity="0.161"/><feComposite operator="in" in2="f"/><feComposite in="SourceGraphic"/></filter></defs><g transform="translate(-1040.903 -714)"><g class="e" transform="matrix(1, 0, 0, 1, 1040.9, 714)"><path class="a" d="M1052.96,715.452H1048.9v6.14h4.057l5.461,3.592V711.757Z" transform="translate(-1038.9 -704.76)"/></g><g class="d" transform="matrix(1, 0, 0, 1, 1040.9, 714)"><path class="b" d="M1064,722s2.819,1.915,0,4.668" transform="translate(-1041.9 -710)"/></g><g class="c" transform="matrix(1, 0, 0, 1, 1040.9, 714)"><path class="b" d="M1064,722s7.8,5.137,0,12.522" transform="translate(-1040.01 -714)"/></g></g></svg>