<svg width="1792.0000000000002" height="1792.0000000000002" xmlns="http://www.w3.org/2000/svg">

 <g>
  <title>background</title>
  <rect fill="none" id="canvas_background" height="402" width="582" y="-1" x="-1"/>
 </g>
 <g>
  <title>Layer 1</title>
  <path fill="#707070" fill-opacity="0.5" id="svg_1" d="m1395,864q0,13 -10,23l-466,466q-10,10 -23,10t-23,-10l-466,-466q-10,-10 -10,-23t10,-23l50,-50q10,-10 23,-10t23,10l393,393l393,-393q10,-10 23,-10t23,10l50,50q10,10 10,23zm0,-384q0,13 -10,23l-466,466q-10,10 -23,10t-23,-10l-466,-466q-10,-10 -10,-23t10,-23l50,-50q10,-10 23,-10t23,10l393,393l393,-393q10,-10 23,-10t23,10l50,50q10,10 10,23z"/>
 </g>
</svg>